<?xml version="1.0" encoding="UTF-8"?>
<!--Generator: Apple Native CoreSVG 175.5-->
<!DOCTYPE svg
PUBLIC "-//W3C//DTD SVG 1.1//EN"
       "http://www.w3.org/Graphics/SVG/1.1/DTD/svg11.dtd">
<svg version="1.1" xmlns="http://www.w3.org/2000/svg" xmlns:xlink="http://www.w3.org/1999/xlink" width="3300" height="2200">
 <!--glyph: "", point size: 100.0, font version: "18.0d12e2", template writer version: "101"-->
 <style>.monochrome-0 {fill:#000000}

.SFSymbolsPreview000000 {fill:#000000;opacity:1.0}
</style>
 <g id="Notes">
  <rect height="2200" id="artboard" style="fill:white;opacity:1" width="3300" x="0" y="0"/>
  <line style="fill:none;stroke:black;opacity:1;stroke-width:0.5;" x1="263" x2="3036" y1="292" y2="292"/>
  <text style="stroke:none;fill:black;font-family:sans-serif;font-size:13;font-weight:bold;" transform="matrix(1 0 0 1 263 322)">Weight/Scale Variations</text>
  <text style="stroke:none;fill:black;font-family:sans-serif;font-size:13;text-anchor:middle;" transform="matrix(1 0 0 1 559.711 322)">Ultralight</text>
  <text style="stroke:none;fill:black;font-family:sans-serif;font-size:13;text-anchor:middle;" transform="matrix(1 0 0 1 856.422 322)">Thin</text>
  <text style="stroke:none;fill:black;font-family:sans-serif;font-size:13;text-anchor:middle;" transform="matrix(1 0 0 1 1153.13 322)">Light</text>
  <text style="stroke:none;fill:black;font-family:sans-serif;font-size:13;text-anchor:middle;" transform="matrix(1 0 0 1 1449.84 322)">Regular</text>
  <text style="stroke:none;fill:black;font-family:sans-serif;font-size:13;text-anchor:middle;" transform="matrix(1 0 0 1 1746.56 322)">Medium</text>
  <text style="stroke:none;fill:black;font-family:sans-serif;font-size:13;text-anchor:middle;" transform="matrix(1 0 0 1 2043.27 322)">Semibold</text>
  <text style="stroke:none;fill:black;font-family:sans-serif;font-size:13;text-anchor:middle;" transform="matrix(1 0 0 1 2339.98 322)">Bold</text>
  <text style="stroke:none;fill:black;font-family:sans-serif;font-size:13;text-anchor:middle;" transform="matrix(1 0 0 1 2636.69 322)">Heavy</text>
  <text style="stroke:none;fill:black;font-family:sans-serif;font-size:13;text-anchor:middle;" transform="matrix(1 0 0 1 2933.4 322)">Black</text>
  <line style="fill:none;stroke:black;opacity:1;stroke-width:0.5;" x1="263" x2="3036" y1="1903" y2="1903"/>
  <g transform="matrix(1 0 0 1 263 1933)">
   <path d="M9.24805 0.830078C13.5547 0.830078 17.1387-2.74414 17.1387-7.05078C17.1387-11.3574 13.5449-14.9316 9.23828-14.9316C4.94141-14.9316 1.36719-11.3574 1.36719-7.05078C1.36719-2.74414 4.95117 0.830078 9.24805 0.830078ZM9.24805-0.654297C5.70312-0.654297 2.87109-3.49609 2.87109-7.05078C2.87109-10.6055 5.69336-13.4473 9.23828-13.4473C12.793-13.4473 15.6445-10.6055 15.6445-7.05078C15.6445-3.49609 12.8027-0.654297 9.24805-0.654297ZM5.6543-7.05078C5.6543-6.62109 5.95703-6.32812 6.40625-6.32812L8.50586-6.32812L8.50586-4.20898C8.50586-3.76953 8.79883-3.4668 9.22852-3.4668C9.67773-3.4668 9.9707-3.76953 9.9707-4.20898L9.9707-6.32812L12.0898-6.32812C12.5293-6.32812 12.832-6.62109 12.832-7.05078C12.832-7.49023 12.5293-7.79297 12.0898-7.79297L9.9707-7.79297L9.9707-9.90234C9.9707-10.3516 9.67773-10.6543 9.22852-10.6543C8.79883-10.6543 8.50586-10.3516 8.50586-9.90234L8.50586-7.79297L6.40625-7.79297C5.95703-7.79297 5.6543-7.49023 5.6543-7.05078Z"/>
  </g>
  <g transform="matrix(1 0 0 1 281.867 1933)">
   <path d="M11.709 2.91016C17.1582 2.91016 21.6699-1.61133 21.6699-7.05078C21.6699-12.5 17.1484-17.0117 11.6992-17.0117C6.25977-17.0117 1.74805-12.5 1.74805-7.05078C1.74805-1.61133 6.26953 2.91016 11.709 2.91016ZM11.709 1.25C7.09961 1.25 3.41797-2.44141 3.41797-7.05078C3.41797-11.6602 7.08984-15.3516 11.6992-15.3516C16.3086-15.3516 20.0098-11.6602 20.0098-7.05078C20.0098-2.44141 16.3184 1.25 11.709 1.25ZM7.17773-7.05078C7.17773-6.57227 7.50977-6.25 8.00781-6.25L10.8789-6.25L10.8789-3.36914C10.8789-2.88086 11.2109-2.53906 11.6895-2.53906C12.1777-2.53906 12.5195-2.87109 12.5195-3.36914L12.5195-6.25L15.4004-6.25C15.8887-6.25 16.2305-6.57227 16.2305-7.05078C16.2305-7.53906 15.8887-7.88086 15.4004-7.88086L12.5195-7.88086L12.5195-10.752C12.5195-11.25 12.1777-11.5918 11.6895-11.5918C11.2109-11.5918 10.8789-11.25 10.8789-10.752L10.8789-7.88086L8.00781-7.88086C7.50977-7.88086 7.17773-7.53906 7.17773-7.05078Z"/>
  </g>
  <g transform="matrix(1 0 0 1 305.646 1933)">
   <path d="M14.9707 5.66406C21.9336 5.66406 27.6953-0.0976562 27.6953-7.05078C27.6953-14.0137 21.9238-19.7754 14.9609-19.7754C8.00781-19.7754 2.25586-14.0137 2.25586-7.05078C2.25586-0.0976562 8.01758 5.66406 14.9707 5.66406ZM14.9707 3.84766C8.93555 3.84766 4.08203-1.01562 4.08203-7.05078C4.08203-13.0957 8.92578-17.9492 14.9609-17.9492C21.0059-17.9492 25.8691-13.0957 25.8691-7.05078C25.8691-1.01562 21.0156 3.84766 14.9707 3.84766ZM9.19922-7.05078C9.19922-6.5332 9.57031-6.17188 10.1172-6.17188L14.0625-6.17188L14.0625-2.2168C14.0625-1.67969 14.4336-1.29883 14.9512-1.29883C15.4883-1.29883 15.8594-1.66992 15.8594-2.2168L15.8594-6.17188L19.8145-6.17188C20.3516-6.17188 20.7324-6.5332 20.7324-7.05078C20.7324-7.59766 20.3613-7.96875 19.8145-7.96875L15.8594-7.96875L15.8594-11.9141C15.8594-12.4609 15.4883-12.8418 14.9512-12.8418C14.4336-12.8418 14.0625-12.4609 14.0625-11.9141L14.0625-7.96875L10.1172-7.96875C9.57031-7.96875 9.19922-7.59766 9.19922-7.05078Z"/>
  </g>
  <text style="stroke:none;fill:black;font-family:sans-serif;font-size:13;font-weight:bold;" transform="matrix(1 0 0 1 263 1953)">Design Variations</text>
  <text style="stroke:none;fill:black;font-family:sans-serif;font-size:13;" transform="matrix(1 0 0 1 263 1971)">Symbols are supported in up to nine weights and three scales.</text>
  <text style="stroke:none;fill:black;font-family:sans-serif;font-size:13;" transform="matrix(1 0 0 1 263 1989)">For optimal layout with text and other symbols, vertically align</text>
  <text style="stroke:none;fill:black;font-family:sans-serif;font-size:13;" transform="matrix(1 0 0 1 263 2007)">symbols with the adjacent text.</text>
  <line style="fill:none;stroke:#00AEEF;stroke-width:0.5;opacity:1.0;" x1="776" x2="776" y1="1919" y2="1933"/>
  <g transform="matrix(1 0 0 1 776 1933)">
   <path d="M3.31055 0.15625C3.82812 0.15625 4.08203-0.0390625 4.26758-0.585938L5.52734-4.0332L11.2891-4.0332L12.5488-0.585938C12.7344-0.0390625 12.9883 0.15625 13.4961 0.15625C14.0137 0.15625 14.3457-0.15625 14.3457-0.644531C14.3457-0.810547 14.3164-0.966797 14.2383-1.17188L9.6582-13.3691C9.43359-13.9648 9.0332-14.2676 8.4082-14.2676C7.80273-14.2676 7.39258-13.9746 7.17773-13.3789L2.59766-1.16211C2.51953-0.957031 2.49023-0.800781 2.49023-0.634766C2.49023-0.146484 2.80273 0.15625 3.31055 0.15625ZM6.00586-5.51758L8.37891-12.0898L8.42773-12.0898L10.8008-5.51758Z"/>
  </g>
  <line style="fill:none;stroke:#00AEEF;stroke-width:0.5;opacity:1.0;" x1="793.197" x2="793.197" y1="1919" y2="1933"/>
  <text style="stroke:none;fill:black;font-family:sans-serif;font-size:13;font-weight:bold;" transform="matrix(1 0 0 1 776 1953)">Margins</text>
  <text style="stroke:none;fill:black;font-family:sans-serif;font-size:13;" transform="matrix(1 0 0 1 776 1971)">Leading and trailing margins on the left and right side of each symbol</text>
  <text style="stroke:none;fill:black;font-family:sans-serif;font-size:13;" transform="matrix(1 0 0 1 776 1989)">can be adjusted by modifying the x-location of the margin guidelines.</text>
  <text style="stroke:none;fill:black;font-family:sans-serif;font-size:13;" transform="matrix(1 0 0 1 776 2007)">Modifications are automatically applied proportionally to all</text>
  <text style="stroke:none;fill:black;font-family:sans-serif;font-size:13;" transform="matrix(1 0 0 1 776 2025)">scales and weights.</text>
  <g transform="matrix(1 0 0 1 1289 1933)">
   <path d="M2.8418 1.86523L4.54102 3.57422C5.40039 4.44336 6.38672 4.38477 7.31445 3.35938L18.0078-8.42773L17.041-9.4043L6.42578 2.27539C6.07422 2.67578 5.74219 2.77344 5.27344 2.30469L4.10156 1.14258C3.63281 0.683594 3.74023 0.341797 4.14062-0.0195312L15.6152-10.8203L14.6387-11.7871L3.04688-0.898438C2.06055 0.0195312 1.98242 0.996094 2.8418 1.86523ZM9.25781-16.3281C8.83789-15.918 8.80859-15.3418 9.04297-14.9512C9.27734-14.5898 9.73633-14.3555 10.3809-14.5215C11.8457-14.8633 13.3691-14.9219 14.7949-13.9844L14.209-12.5293C13.8672-11.6992 14.043-11.1133 14.5801-10.5664L16.875-8.25195C17.3633-7.76367 17.7734-7.74414 18.3398-7.8418L19.4043-8.03711L20.0684-7.36328L20.0293-6.80664C19.9902-6.30859 20.1172-5.92773 20.6055-5.44922L21.3672-4.70703C21.8457-4.22852 22.4609-4.19922 22.9297-4.66797L25.8398-7.58789C26.3086-8.05664 26.2891-8.65234 25.8105-9.13086L25.0391-9.89258C24.5605-10.3711 24.1895-10.5273 23.7109-10.4883L23.1348-10.4395L22.4902-11.0742L22.7344-12.1973C22.8613-12.7637 22.7051-13.2031 22.1191-13.7891L19.9219-15.9766C16.582-19.2969 12.1484-19.2188 9.25781-16.3281ZM10.752-15.957C13.1836-17.7344 16.4746-17.4316 18.7012-15.2051L21.1328-12.793C21.3672-12.5586 21.4062-12.373 21.3379-12.0312L21.0156-10.5469L22.5195-9.0625L23.5059-9.12109C23.7598-9.13086 23.8379-9.11133 24.0332-8.91602L24.6094-8.33984L22.168-5.89844L21.5918-6.47461C21.3965-6.66992 21.3672-6.74805 21.377-7.01172L21.4453-7.98828L19.9512-9.47266L18.4277-9.21875C18.1055-9.15039 17.959-9.17969 17.7148-9.41406L15.7129-11.416C15.459-11.6504 15.4297-11.8164 15.5859-12.1875L16.4648-14.2773C14.9023-15.7324 12.8711-16.3574 10.8398-15.7617C10.6836-15.7227 10.625-15.8496 10.752-15.957Z"/>
  </g>
  <text style="stroke:none;fill:black;font-family:sans-serif;font-size:13;font-weight:bold;" transform="matrix(1 0 0 1 1289 1953)">Exporting</text>
  <text style="stroke:none;fill:black;font-family:sans-serif;font-size:13;" transform="matrix(1 0 0 1 1289 1971)">Symbols should be outlined when exporting to ensure the</text>
  <text style="stroke:none;fill:black;font-family:sans-serif;font-size:13;" transform="matrix(1 0 0 1 1289 1989)">design is preserved when submitting to Xcode.</text>
  <text id="template-version" style="stroke:none;fill:black;font-family:sans-serif;font-size:13;text-anchor:end;" transform="matrix(1 0 0 1 3036 1933)">Template v.4.0</text>
  <text style="stroke:none;fill:black;font-family:sans-serif;font-size:13;text-anchor:end;" transform="matrix(1 0 0 1 3036 1951)">Requires Xcode 14 or greater</text>
  <text id="descriptive-name" style="stroke:none;fill:black;font-family:sans-serif;font-size:13;text-anchor:end;" transform="matrix(1 0 0 1 3036 1969)">Generated from custom.figure.strengthtraining.traditional</text>
  <text style="stroke:none;fill:black;font-family:sans-serif;font-size:13;text-anchor:end;" transform="matrix(1 0 0 1 3036 1987)">Typeset at 100 points</text>
  <text style="stroke:none;fill:black;font-family:sans-serif;font-size:13;" transform="matrix(1 0 0 1 263 726)">Small</text>
  <text style="stroke:none;fill:black;font-family:sans-serif;font-size:13;" transform="matrix(1 0 0 1 263 1156)">Medium</text>
  <text style="stroke:none;fill:black;font-family:sans-serif;font-size:13;" transform="matrix(1 0 0 1 263 1586)">Large</text>
 </g>
 <g id="Guides">
  <g id="H-reference" style="fill:#27AAE1;stroke:none;" transform="matrix(1 0 0 1 339 696)">
   <path d="M0.993654 0L3.63775 0L29.3281-67.1323L30.0303-67.1323L30.0303-70.459L28.1226-70.459ZM11.6885-24.4799L46.9815-24.4799L46.2315-26.7285L12.4385-26.7285ZM55.1196 0L57.7637 0L30.6382-70.459L29.4326-70.459L29.4326-67.1323Z"/>
  </g>
  <line id="Baseline-S" style="fill:none;stroke:#27AAE1;opacity:1;stroke-width:0.5;" x1="263" x2="3036" y1="696" y2="696"/>
  <line id="Capline-S" style="fill:none;stroke:#27AAE1;opacity:1;stroke-width:0.5;" x1="263" x2="3036" y1="625.541" y2="625.541"/>
  <g id="H-reference" style="fill:#27AAE1;stroke:none;" transform="matrix(1 0 0 1 339 1126)">
   <path d="M0.993654 0L3.63775 0L29.3281-67.1323L30.0303-67.1323L30.0303-70.459L28.1226-70.459ZM11.6885-24.4799L46.9815-24.4799L46.2315-26.7285L12.4385-26.7285ZM55.1196 0L57.7637 0L30.6382-70.459L29.4326-70.459L29.4326-67.1323Z"/>
  </g>
  <line id="Baseline-M" style="fill:none;stroke:#27AAE1;opacity:1;stroke-width:0.5;" x1="263" x2="3036" y1="1126" y2="1126"/>
  <line id="Capline-M" style="fill:none;stroke:#27AAE1;opacity:1;stroke-width:0.5;" x1="263" x2="3036" y1="1055.54" y2="1055.54"/>
  <g id="H-reference" style="fill:#27AAE1;stroke:none;" transform="matrix(1 0 0 1 339 1556)">
   <path d="M0.993654 0L3.63775 0L29.3281-67.1323L30.0303-67.1323L30.0303-70.459L28.1226-70.459ZM11.6885-24.4799L46.9815-24.4799L46.2315-26.7285L12.4385-26.7285ZM55.1196 0L57.7637 0L30.6382-70.459L29.4326-70.459L29.4326-67.1323Z"/>
  </g>
  <line id="Baseline-L" style="fill:none;stroke:#27AAE1;opacity:1;stroke-width:0.5;" x1="263" x2="3036" y1="1556" y2="1556"/>
  <line id="Capline-L" style="fill:none;stroke:#27AAE1;opacity:1;stroke-width:0.5;" x1="263" x2="3036" y1="1485.54" y2="1485.54"/>
  <line id="left-margin-Ultralight-S" style="fill:none;stroke:#00AEEF;stroke-width:0.5;opacity:1.0;" x1="508.628" x2="508.628" y1="600.785" y2="720.121"/>
  <line id="right-margin-Ultralight-S" style="fill:none;stroke:#00AEEF;stroke-width:0.5;opacity:1.0;" x1="610.795" x2="610.795" y1="600.785" y2="720.121"/>
  <line id="left-margin-Regular-S" style="fill:none;stroke:#00AEEF;stroke-width:0.5;opacity:1.0;" x1="1393.45" x2="1393.45" y1="600.785" y2="720.121"/>
  <line id="right-margin-Regular-S" style="fill:none;stroke:#00AEEF;stroke-width:0.5;opacity:1.0;" x1="1506.24" x2="1506.24" y1="600.785" y2="720.121"/>
  <line id="left-margin-Black-S" style="fill:none;stroke:#00AEEF;stroke-width:0.5;opacity:1.0;" x1="2873.46" x2="2873.46" y1="600.785" y2="720.121"/>
  <line id="right-margin-Black-S" style="fill:none;stroke:#00AEEF;stroke-width:0.5;opacity:1.0;" x1="2993.34" x2="2993.34" y1="600.785" y2="720.121"/>
 </g>
 <g id="Symbols">
  <g id="Black-S" transform="matrix(1 0 0 1 2873.46 696)">
   <path class="monochrome-0 SFSymbolsPreview000000" d="M50.0488-38.2812L69.9219-38.2812L69.9219-43.0664C69.9219-43.5059 70.3125-43.5547 70.5078-43.1641L80.9082-22.0215C82.1289-19.5312 85.2051-18.457 87.7441-19.7754C90.1367-20.9961 91.1621-24.0723 89.9414-26.5625L75-56.7871C73.0469-60.7422 69.3848-63.0371 64.8438-63.0371L55.0781-63.0371C50.5371-63.0371 46.875-60.7422 44.9219-56.7871L29.9805-26.5625C28.7598-24.0723 29.834-20.9961 32.2266-19.7754C34.7168-18.457 37.793-19.5312 39.0137-22.0215L49.4629-43.1641C49.6582-43.5547 50.0488-43.5059 50.0488-43.0664ZM43.3105 15.4297C45.752 15.8691 48.5352 14.6484 49.2676 11.2793L53.0273-6.05469L59.9609-16.4551L66.8945-6.05469L70.6543 11.2793C71.4355 14.7461 74.2676 15.918 76.709 15.3809C79.1992 14.8926 81.25 12.5977 80.5176 9.13086L76.6602-8.93555C76.6113-9.27734 76.5137-9.61914 76.3672-10.0098L72.6074-20.6543L47.3633-20.6543L43.5547-10.0098C43.4082-9.61914 43.3105-9.27734 43.2617-8.93555L39.4043 9.13086C38.623 12.6953 40.8203 14.9414 43.3105 15.4297ZM13.6719-25.5859L106.201-25.5859C108.398-25.5859 110.107-27.3438 110.107-29.4922C110.107-31.6406 108.398-33.3984 106.201-33.3984L13.6719-33.3984C11.4746-33.3984 9.76562-31.6406 9.76562-29.4922C9.76562-27.3438 11.4746-25.5859 13.6719-25.5859ZM59.9609-66.9434C65.332-66.9434 69.7266-71.3379 69.7266-76.709C69.7266-82.0801 65.332-86.4746 59.9609-86.4746C54.5898-86.4746 50.1953-82.0801 50.1953-76.709C50.1953-71.3379 54.5898-66.9434 59.9609-66.9434ZM97.998-14.4531L99.9512-14.4531C102.441-14.4531 104.248-16.3086 104.248-18.8477L104.248-40.1855C104.248-42.7246 102.441-44.5312 99.9512-44.5312L97.998-44.5312C95.5078-44.5312 93.7012-42.7246 93.7012-40.1855L93.7012-18.8477C93.7012-16.3086 95.5078-14.4531 97.998-14.4531ZM19.9707-14.4531L21.875-14.4531C24.3652-14.4531 26.1719-16.3086 26.1719-18.8477L26.1719-40.1855C26.1719-42.7246 24.3652-44.5312 21.875-44.5312L19.9707-44.5312C17.4316-44.5312 15.625-42.7246 15.625-40.1855L15.625-18.8477C15.625-16.3086 17.4316-14.4531 19.9707-14.4531Z"/>
  </g>
  <g id="Regular-S" transform="matrix(1 0 0 1 1393.45 696)">
   <path class="monochrome-0 SFSymbolsPreview000000" d="M47.9004-36.6211L65.0391-36.6211L65.0391-45.6055C65.0391-46.2891 66.0645-46.582 66.4551-45.752L77.2949-23.6816C78.2715-21.7773 80.6152-20.9473 82.5684-21.9727C84.4238-22.9004 85.2539-25.2441 84.2773-27.1973L69.9707-56.1035C68.2617-59.5703 65.0879-61.5234 61.084-61.5234L51.7578-61.5234C47.8027-61.5234 44.5801-59.5703 42.8711-56.1035L28.6133-27.1973C27.6367-25.2441 28.4668-22.9004 30.2734-21.9727C32.2266-20.9473 34.5703-21.7773 35.5469-23.6816L46.4844-45.752C46.875-46.582 47.9004-46.3379 47.9004-45.6543ZM40.625 11.6699C42.5293 12.0605 44.6777 11.084 45.2637 8.39844L48.877-8.30078L56.4453-21.9238L63.9648-8.30078L67.5781 8.39844C68.1641 11.1816 70.5078 12.1094 72.4121 11.6211C74.2676 11.1328 75.7324 9.375 75.1953 6.68945L71.4844-10.5469C71.4355-10.8887 71.3867-11.1328 71.2402-11.4746L66.748-24.1699L46.1426-24.1699L41.6016-11.4746C41.4551-11.1328 41.4062-10.8887 41.3574-10.5469L37.6953 6.68945C37.1094 9.47266 38.7695 11.2793 40.625 11.6699ZM12.1094-28.0273L100.684-28.0273C102.002-28.0273 103.027-29.1016 103.027-30.4199C103.027-31.7383 102.002-32.7637 100.684-32.7637L12.1094-32.7637C10.791-32.7637 9.76562-31.7383 9.76562-30.4199C9.76562-29.1016 10.791-28.0273 12.1094-28.0273ZM56.4453-65.4297C61.084-65.4297 64.9414-69.1895 64.9414-73.9746C64.9414-78.6133 61.084-82.4219 56.4453-82.4219C51.709-82.4219 47.9492-78.6133 47.9492-73.9746C47.9492-69.1895 51.709-65.4297 56.4453-65.4297ZM92.7734-17.334L94.7266-17.334C96.3867-17.334 97.4609-18.5059 97.4609-20.166L97.4609-40.7227C97.4609-42.3828 96.3867-43.457 94.7266-43.457L92.7734-43.457C91.1133-43.457 89.9902-42.3828 89.9902-40.7227L89.9902-20.166C89.9902-18.5059 91.1133-17.334 92.7734-17.334ZM18.1152-17.334L20.0684-17.334C21.7285-17.334 22.8027-18.5059 22.8027-20.166L22.8027-40.7227C22.8027-42.3828 21.7285-43.457 20.0684-43.457L18.1152-43.457C16.4551-43.457 15.332-42.3828 15.332-40.7227L15.332-20.166C15.332-18.5059 16.4551-17.334 18.1152-17.334Z"/>
  </g>
  <g id="Ultralight-S" transform="matrix(1 0 0 1 508.628 696)">
   <path class="monochrome-0 SFSymbolsPreview000000" d="M43.3594-34.9863L58.9087-34.9863L58.9087-44.8335C58.9087-45.4263 59.8433-45.7192 60.1885-44.98L70.1202-24.9077C71.0059-23.1396 73.0772-22.4004 74.8487-23.335C76.5225-24.1719 77.3072-26.334 76.4214-28.0601L63.4317-54.3325C61.8589-57.4815 58.9576-59.2984 55.3169-59.2984L46.899-59.2984C43.2618-59.2984 40.357-57.4815 38.7842-54.3325L25.7979-28.0601C24.9121-26.334 25.6968-24.1719 27.3672-23.335C29.1387-22.4004 31.21-23.1396 32.0957-24.9077L42.0342-44.98C42.4248-45.7192 43.3594-45.4751 43.3594-44.8823ZM36.7652 7.26517C38.4424 7.61039 40.4092 6.72464 40.9497 4.31156L44.2452-10.8891L51.087-24.4668L57.9253-10.8891L61.2662 4.31156C61.8067 6.86771 63.9688 7.70462 65.7369 7.21634C67.3653 6.72806 68.6485 5.15189 68.1568 2.7388L64.8091-12.9082C64.7603-13.2046 64.6661-13.4487 64.565-13.7451L59.8912-26.9399L42.3736-26.9399L37.6055-13.7451C37.5044-13.4487 37.4556-13.2046 37.4068-12.9082L34.0625 2.7388C33.522 5.29495 35.0005 6.91996 36.7652 7.26517ZM10.7925-29.9346L91.3746-29.9346C91.921-29.9346 92.4015-30.4184 92.4015-30.9648C92.4015-31.5566 91.921-32.0371 91.3746-32.0371L10.7925-32.0371C10.2461-32.0371 9.76562-31.5566 9.76562-30.9648C9.76562-30.4184 10.2461-29.9346 10.7925-29.9346ZM51.087-62.7505C55.3623-62.7505 58.8565-66.1924 58.8565-70.5235C58.8565-74.7534 55.3623-78.1988 51.087-78.1988C46.8501-78.1988 43.4082-74.7534 43.4082-70.5235C43.4082-66.1924 46.8501-62.7505 51.087-62.7505ZM83.2374-19.105L86.7798-19.105C87.7134-19.105 88.4244-19.8682 88.4244-20.7563L88.4244-41.2222C88.4244-42.1558 87.7134-42.8667 86.7798-42.8667L83.2374-42.8667C82.3492-42.8667 81.6348-42.1558 81.6348-41.2222L81.6348-20.7563C81.6348-19.8682 82.3492-19.105 83.2374-19.105ZM15.3906-19.105L18.8877-19.105C19.8213-19.105 20.5322-19.8682 20.5322-20.7563L20.5322-41.2222C20.5322-42.1558 19.8213-42.8667 18.8877-42.8667L15.3906-42.8667C14.457-42.8667 13.7427-42.1558 13.7427-41.2222L13.7427-20.7563C13.7427-19.8682 14.457-19.105 15.3906-19.105Z"/>
  </g>
 </g>
</svg>
